<svg width="216" height="216" viewBox="0 0 216 216" fill="none" xmlns="http://www.w3.org/2000/svg">
<g filter="url(#filter0_d_38946_143)">
<rect x="70" y="50" width="76" height="76" rx="14" fill="#7644E1"/>
<rect x="70" y="50" width="76" height="76" rx="14" fill="white" fill-opacity="0.9"/>
</g>
<path d="M126.667 88V111.333H89.3333V88" stroke="#7644E1" stroke-width="4" stroke-linecap="round" stroke-linejoin="round"/>
<path d="M131.333 76.3334H84.6667V88H131.333V76.3334Z" stroke="#7644E1" stroke-width="4" stroke-linecap="round" stroke-linejoin="round"/>
<path d="M108 111.333V76.3334" stroke="#7644E1" stroke-width="4" stroke-linecap="round" stroke-linejoin="round"/>
<path d="M108 76.3333H97.5001C95.953 76.3333 94.4693 75.7187 93.3753 74.6247C92.2813 73.5308 91.6667 72.0471 91.6667 70.5C91.6667 68.9529 92.2813 67.4691 93.3753 66.3752C94.4693 65.2812 95.953 64.6666 97.5001 64.6666C105.667 64.6666 108 76.3333 108 76.3333Z" stroke="#7644E1" stroke-width="4" stroke-linecap="round" stroke-linejoin="round"/>
<path d="M108 76.3333H118.5C120.047 76.3333 121.531 75.7187 122.625 74.6247C123.719 73.5308 124.333 72.0471 124.333 70.5C124.333 68.9529 123.719 67.4691 122.625 66.3752C121.531 65.2812 120.047 64.6666 118.5 64.6666C110.333 64.6666 108 76.3333 108 76.3333Z" stroke="#7644E1" stroke-width="4" stroke-linecap="round" stroke-linejoin="round"/>
<defs>
<filter id="filter0_d_38946_143" x="0" y="0" width="216" height="216" filterUnits="userSpaceOnUse" color-interpolation-filters="sRGB">
<feFlood flood-opacity="0" result="BackgroundImageFix"/>
<feColorMatrix in="SourceAlpha" type="matrix" values="0 0 0 0 0 0 0 0 0 0 0 0 0 0 0 0 0 0 127 0" result="hardAlpha"/>
<feMorphology radius="10" operator="dilate" in="SourceAlpha" result="effect1_dropShadow_38946_143"/>
<feOffset dy="20"/>
<feGaussianBlur stdDeviation="30"/>
<feComposite in2="hardAlpha" operator="out"/>
<feColorMatrix type="matrix" values="0 0 0 0 0.929412 0 0 0 0 0.929412 0 0 0 0 0.964706 0 0 0 0.2 0"/>
<feBlend mode="normal" in2="BackgroundImageFix" result="effect1_dropShadow_38946_143"/>
<feBlend mode="normal" in="SourceGraphic" in2="effect1_dropShadow_38946_143" result="shape"/>
</filter>
</defs>
</svg>
