<?xml version="1.0" encoding="iso-8859-1"?>
<!-- Uploaded to: SVG Repo, www.svgrepo.com, Generator: SVG Repo Mixer Tools -->
<svg height="800px" width="800px" version="1.1" id="Layer_1" xmlns="http://www.w3.org/2000/svg" xmlns:xlink="http://www.w3.org/1999/xlink" 
	 viewBox="0 0 512 512" xml:space="preserve">
<path style="fill:#F4B2B0;" d="M256,137.646L256,137.646c-17.513,0-31.71-14.197-31.71-31.71V46.237
	c0-17.513,14.197-31.71,31.71-31.71l0,0c17.513,0,31.71,14.197,31.71,31.71v59.699C287.71,123.449,273.513,137.646,256,137.646z"/>
<g>
	<path style="fill:#B3404A;" d="M256,152.172c-25.496,0-46.237-20.741-46.237-46.237V46.237C209.763,20.741,230.504,0,256,0
		s46.237,20.741,46.237,46.237v59.699C302.237,131.431,281.496,152.172,256,152.172z M256,29.053
		c-9.474,0-17.184,7.709-17.184,17.184v59.699c0,9.474,7.709,17.184,17.184,17.184c9.474,0,17.184-7.709,17.184-17.184V46.237
		C273.184,36.763,265.474,29.053,256,29.053z"/>
	<path style="fill:#B3404A;" d="M256,512c-25.496,0-46.237-20.741-46.237-46.237c0-8.022,6.504-14.527,14.527-14.527
		c8.023,0,14.527,6.505,14.527,14.527c0,9.474,7.709,17.184,17.184,17.184c9.474,0,17.184-7.709,17.184-17.184v-59.699
		c0-9.474-7.709-17.184-17.184-17.184c-9.474,0-17.184,7.709-17.184,17.184c0,8.022-6.504,14.527-14.527,14.527
		c-8.023,0-14.527-6.505-14.527-14.527c0-25.496,20.741-46.237,46.237-46.237s46.237,20.741,46.237,46.237v59.699
		C302.237,491.259,281.496,512,256,512z"/>
	<path style="fill:#B3404A;" d="M465.763,302.237c-8.023,0-14.527-6.505-14.527-14.527s6.504-14.527,14.527-14.527
		c9.474,0,17.184-7.708,17.184-17.182s-7.709-17.184-17.184-17.184h-59.699c-9.474,0-17.184,7.708-17.184,17.182
		c0,9.474,7.708,17.184,17.184,17.184c8.023,0,14.527,6.505,14.527,14.527s-6.504,14.527-14.527,14.527
		c-25.494,0-46.237-20.741-46.237-46.235c0-25.496,20.741-46.237,46.237-46.237h59.699C491.259,209.765,512,230.506,512,256
		C512,281.494,491.259,302.237,465.763,302.237z"/>
</g>
<path style="fill:#F4B2B0;" d="M14.527,256L14.527,256c0-17.513,14.197-31.71,31.71-31.71h59.699c17.513,0,31.71,14.197,31.71,31.71
	l0,0c0,17.513-14.197,31.71-31.71,31.71H46.237C28.724,287.71,14.527,273.513,14.527,256z"/>
<g>
	<path style="fill:#B3404A;" d="M105.936,302.237H46.237C20.741,302.237,0,281.494,0,256.001c0-25.496,20.741-46.237,46.237-46.237
		h59.699c25.494,0,46.237,20.741,46.237,46.235C152.172,281.494,131.431,302.237,105.936,302.237z M46.237,238.816
		c-9.474,0-17.184,7.708-17.184,17.182V256c0,9.474,7.709,17.182,17.184,17.182h59.699c9.474,0,17.184-7.708,17.184-17.182
		c0-9.474-7.708-17.184-17.184-17.184L46.237,238.816L46.237,238.816z"/>
	<path style="fill:#B3404A;" d="M362.111,196.102c-11.842,0.001-23.678-4.506-32.694-13.52
		c-8.732-8.733-13.542-20.345-13.542-32.695c0-12.349,4.81-23.96,13.542-32.695l42.214-42.213
		c8.732-8.733,20.343-13.543,32.694-13.543c12.351,0,23.962,4.811,32.695,13.543c18.028,18.028,18.028,47.361,0,65.389
		l-42.214,42.214C385.793,191.596,373.949,196.102,362.111,196.102z M404.324,90.491c-4.59,0-8.905,1.788-12.15,5.035
		l-42.214,42.213c-3.245,3.245-5.032,7.561-5.032,12.15c0,4.59,1.787,8.905,5.032,12.15l0,0c6.7,6.701,17.6,6.701,24.302,0
		l42.213-42.214c3.245-3.244,5.033-7.56,5.033-12.15c0-4.589-1.787-8.905-5.033-12.149
		C413.229,92.279,408.915,90.491,404.324,90.491z"/>
</g>
<path style="fill:#F4B2B0;" d="M85.252,426.748L85.252,426.748c-12.384-12.384-12.384-32.461,0-44.845l42.213-42.213
	c12.384-12.384,32.461-12.384,44.845,0l0,0c12.384,12.384,12.384,32.461,0,44.845l-42.213,42.213
	C117.714,439.132,97.636,439.132,85.252,426.748z"/>
<g>
	<path style="fill:#B3404A;" d="M107.676,450.561c-12.351,0-23.962-4.81-32.695-13.542c-8.732-8.733-13.542-20.345-13.542-32.694
		c0-12.351,4.81-23.962,13.542-32.695l42.214-42.214c18.029-18.026,47.361-18.025,65.389,0c8.732,8.733,13.542,20.345,13.542,32.695
		c0,12.349-4.81,23.96-13.542,32.695l-42.214,42.213C131.637,445.753,120.026,450.561,107.676,450.561z M149.889,344.936
		c-4.402,0-8.8,1.673-12.152,5.025l-42.213,42.214c-3.245,3.244-5.033,7.56-5.033,12.15c0,4.589,1.787,8.905,5.033,12.149l0,0
		c3.245,3.245,7.561,5.033,12.15,5.033s8.905-1.787,12.15-5.033l42.214-42.213c3.245-3.245,5.032-7.561,5.032-12.15
		c0-4.59-1.787-8.905-5.032-12.15C158.69,346.611,154.289,344.936,149.889,344.936z"/>
	<path style="fill:#B3404A;" d="M404.324,450.561c-12.351,0-23.962-4.81-32.695-13.542l-42.213-42.213
		c-8.733-8.735-13.543-20.346-13.543-32.695c0-12.351,4.81-23.962,13.543-32.695l0,0l0,0c18.026-18.03,47.36-18.028,65.387,0
		l42.214,42.214c8.732,8.733,13.542,20.345,13.542,32.695c0,12.349-4.81,23.96-13.542,32.694
		C428.287,445.753,416.675,450.561,404.324,450.561z M362.111,344.936c-4.4,0-8.8,1.673-12.15,5.025l0,0
		c-3.245,3.245-5.032,7.56-5.032,12.15c0,4.589,1.787,8.905,5.033,12.15l42.213,42.213c3.247,3.245,7.561,5.033,12.152,5.033
		s8.905-1.787,12.15-5.033c3.245-3.244,5.033-7.56,5.033-12.149c0-4.59-1.787-8.906-5.033-12.15l-42.214-42.214
		C370.913,346.611,366.511,344.936,362.111,344.936z M339.689,339.689h0.015H339.689z"/>
</g>
<path style="fill:#F4B2B0;" d="M85.252,85.252L85.252,85.252c12.384-12.384,32.461-12.384,44.845,0l42.213,42.213
	c12.384,12.384,12.384,32.461,0,44.845l0,0c-12.384,12.384-32.461,12.384-44.845,0l-42.213-42.213
	C72.869,117.714,72.869,97.636,85.252,85.252z"/>
<path style="fill:#B3404A;" d="M149.889,196.104c-11.839,0-23.68-4.508-32.694-13.521l-42.214-42.214
	c-8.732-8.733-13.542-20.345-13.542-32.695c0-12.349,4.81-23.96,13.542-32.694l0,0l0,0c8.733-8.733,20.345-13.543,32.695-13.543
	s23.962,4.811,32.695,13.543l42.213,42.213c8.733,8.735,13.543,20.346,13.543,32.695c0,12.351-4.81,23.962-13.543,32.695
	C173.569,191.598,161.729,196.102,149.889,196.104z M107.676,90.491c-4.59,0-8.905,1.788-12.15,5.035l0,0
	c-6.7,6.698-6.7,17.6,0,24.3l42.214,42.214c6.698,6.697,17.602,6.703,24.3,0c3.245-3.245,5.033-7.56,5.033-12.15
	c0-4.589-1.787-8.905-5.033-12.15l-42.214-42.214C116.579,92.279,112.265,90.491,107.676,90.491z M85.252,85.254h0.015H85.252z"/>
</svg>