<svg width="24" height="24" viewBox="0 0 24 24" fill="none" xmlns="http://www.w3.org/2000/svg">
<path fill-rule="evenodd" clip-rule="evenodd" d="M3.59999 0H20.4L24 6V22.8C24 23.4628 23.4628 24 22.8 24H1.2C0.537258 24 0 23.4628 0 22.8V6L3.59999 0ZM2.09914 6H21.9008L19.3808 1.8H4.61916L2.09914 6ZM6 9.3C6.49704 9.3 6.9 9.70296 6.9 10.2C6.9 13.0166 9.18336 15.3 12 15.3C14.8166 15.3 17.1 13.0166 17.1 10.2C17.1 9.70296 17.503 9.3 18 9.3C18.497 9.3 18.9 9.70296 18.9 10.2C18.9 14.0108 15.8108 17.1 12 17.1C8.18922 17.1 5.1 14.0108 5.1 10.2C5.1 9.70296 5.50296 9.3 6 9.3Z" fill="#ffb700"/>
</svg>
